HIERARCHY
ROOT Hips
{
	OFFSET 0.000000 0.000000 0.000000
	CHANNELS 6 Xposition Yposition Zposition Zrotation Yrotation Xrotation 
	JOINT LHipJoint
	{
		OFFSET 0.000000 0.000000 0.000000
		CHANNELS 3 Zrotation Yrotation Xrotation
		JOINT LeftUpLeg
		{
			OFFSET 1.363060 -1.794630 0.839290
			CHANNELS 3 Zrotation Yrotation Xrotation
			JOINT LeftLeg
			{
				OFFSET 2.448110 -6.726130 0.000000
				CHANNELS 3 Zrotation Yrotation Xrotation
				JOINT LeftFoot
				{
					OFFSET 2.562200 -7.039590 0.000000
					CHANNELS 3 Zrotation Yrotation Xrotation
					JOINT LeftToeBase
					{
						OFFSET 0.157640 -0.433110 2.322550
						CHANNELS 3 Zrotation Yrotation Xrotation
						End Site
						{
							OFFSET 0.000000 0.000000 0.000000
						}
					}
				}
			}
		}
	}
	JOINT RHipJoint
	{
		OFFSET 0.000000 0.000000 0.000000
		CHANNELS 3 Zrotation Yrotation Xrotation
		JOINT RightUpLeg
		{
			OFFSET -1.305520 -1.794630 0.839290
			CHANNELS 3 Zrotation Yrotation Xrotation
			JOINT RightLeg
			{
				OFFSET -2.542530 -6.985550 0.000000
				CHANNELS 3 Zrotation Yrotation Xrotation
				JOINT RightFoot
				{
					OFFSET -2.568260 -7.056230 0.000000
					CHANNELS 3 Zrotation Yrotation Xrotation
					JOINT RightToeBase
					{
						OFFSET -0.164730 -0.452590 2.363150
						CHANNELS 3 Zrotation Yrotation Xrotation
						End Site
						{
							OFFSET 0.000000 0.000000 0.000000
						}
					}
				}
			}
		}
	}
	JOINT LowerBack
	{
		OFFSET 0.000000 0.000000 0.000000
		CHANNELS 3 Zrotation Yrotation Xrotation
		JOINT Spine
		{
			OFFSET 0.028270 2.035590 -0.193380
			CHANNELS 3 Zrotation Yrotation Xrotation
			JOINT Spine1
			{
				OFFSET 0.056720 2.048850 -0.042750
				CHANNELS 3 Zrotation Yrotation Xrotation
				JOINT Neck
				{
					OFFSET 0.000000 0.000000 0.000000
					CHANNELS 3 Zrotation Yrotation Xrotation
					JOINT Neck1
					{
						OFFSET -0.054170 1.746240 0.172020
						CHANNELS 3 Zrotation Yrotation Xrotation
						JOINT Head
						{
							OFFSET 0.104070 1.761360 -0.123970
							CHANNELS 3 Zrotation Yrotation Xrotation
							End Site
							{
								OFFSET 0.000000 0.000000 0.000000
							}
						}
					}
				}
				JOINT LeftShoulder
				{
					OFFSET 0.000000 0.000000 0.000000
					CHANNELS 3 Zrotation Yrotation Xrotation
					JOINT LeftArm
					{
						OFFSET 3.362410 1.200890 -0.311210
						CHANNELS 3 Zrotation Yrotation Xrotation
						JOINT LeftForeArm
						{
							OFFSET 4.983000 -0.000000 -0.000000
							CHANNELS 3 Zrotation Yrotation Xrotation
							JOINT LeftHand
							{
								OFFSET 3.483560 -0.000000 -0.000000
								CHANNELS 3 Zrotation Yrotation Xrotation
								JOINT LeftFingerBase
								{
									OFFSET 0.000000 0.000000 0.000000
									CHANNELS 3 Zrotation Yrotation Xrotation
									JOINT LeftHandIndex1
									{
										OFFSET 0.715260 -0.000000 -0.000000
										CHANNELS 3 Zrotation Yrotation Xrotation
										End Site
										{
											OFFSET 0.000000 0.000000 0.000000
										}
									}
								}
								JOINT LThumb
								{
									OFFSET 0.000000 0.000000 0.000000
									CHANNELS 3 Zrotation Yrotation Xrotation
									End Site
									{
										OFFSET 0.000000 0.000000 0.000000
									}
								}
							}
						}
					}
				}
				JOINT RightShoulder
				{
					OFFSET 0.000000 0.000000 0.000000
					CHANNELS 3 Zrotation Yrotation Xrotation
					JOINT RightArm
					{
						OFFSET -3.136600 1.374050 -0.404650
						CHANNELS 3 Zrotation Yrotation Xrotation
						JOINT RightForeArm
						{
							OFFSET -5.241900 -0.000000 -0.000000
							CHANNELS 3 Zrotation Yrotation Xrotation
							JOINT RightHand
							{
								OFFSET -3.444170 -0.000000 -0.000000
								CHANNELS 3 Zrotation Yrotation Xrotation
								JOINT RightFingerBase
								{
									OFFSET 0.000000 0.000000 0.000000
									CHANNELS 3 Zrotation Yrotation Xrotation
									JOINT RightHandIndex1
									{
										OFFSET -0.622530 -0.000000 -0.000000
										CHANNELS 3 Zrotation Yrotation Xrotation
										End Site
										{
											OFFSET 0.000000 0.000000 0.000000
										}
									}
								}
								JOINT RThumb
								{
									OFFSET 0.000000 0.000000 0.000000
									CHANNELS 3 Zrotation Yrotation Xrotation
									End Site
									{
										OFFSET 0.000000 0.000000 0.000000
									}
								}
							}
						}
					}
				}
			}
		}
	}
}
MOTION
Frames: 9
Frame Time: 0.008333
0.233080 17.920395 4.657954 0.827171 1.316090 0.759818 -1.414711 5.998287 5.587686 -21.605753 -5.713315 -5.839376 -0.335871 4.936765 21.236785 0.887758 -2.842023 -0.186111 0.026352 -1.045279 -2.873405 0.560799 -4.173751 2.942537 16.311501 11.382049 -32.678787 -6.346994 -14.039530 47.061207 1.640564 -7.358502 3.272876 -0.004652 -0.278854 0.766403 -3.167945 -1.513764 5.874051 3.139652 -2.082058 3.512076 3.523261 -1.102863 -9.101862 -4.735328 -4.244250 -18.316127 5.134177 -4.956302 17.517046 0.307271 -1.831109 9.200370 -7.220731 2.732479 -1.115296 -78.136698 -3.982560 23.329992 12.845210 -21.723403 -2.508119 -0.394708 -0.850522 -6.563541 29.688719 24.990322 14.191287 -7.125000 0.000000 0.000000 0.466205 59.168038 0.158435 11.255200 -2.100925 -2.544537 76.773790 -4.330324 -3.747703 -8.023232 18.146474 -1.572354 1.056092 -0.203858 9.823042 -18.494567 14.862949 -5.200606 7.125000 0.000000 0.000000 5.413073 -14.370026 3.903365
0.231547 17.928005 4.756321 0.988528 1.372598 0.812033 -1.433780 6.019887 5.640661 -21.737470 -5.630094 -5.398200 -0.378384 4.816027 20.952350 0.900401 -2.889918 -0.334416 0.021857 -0.953038 -2.619614 0.614428 -4.150760 2.890318 16.043344 11.423574 -32.855489 -5.941054 -13.736215 45.537048 1.856456 -8.112869 4.180994 -0.013757 -0.708762 1.948010 -3.395427 -1.564488 5.741869 3.147154 -2.167251 3.551735 3.649552 -1.143066 -8.988877 -4.778937 -4.199997 -18.144497 5.155772 -4.902340 17.383369 0.327813 -1.813128 9.133110 -7.214444 2.711790 -1.112535 -78.078953 -4.203694 23.454637 12.965396 -21.896994 -2.556137 -0.395173 -0.842149 -6.910529 29.867795 24.481245 14.034062 -7.125000 0.000000 0.000000 0.837616 58.646515 0.277705 11.251979 -2.106176 -2.556310 76.782175 -4.335130 -3.333094 -8.243709 18.531453 -1.684979 1.006677 -0.105737 9.987309 -17.829162 12.891560 -4.313818 7.125000 0.000000 0.000000 5.847420 -16.581079 3.947295
0.229043 17.929542 4.853718 1.111052 1.449083 0.843222 -1.448837 6.051346 5.700487 -21.820674 -5.530860 -4.883804 -0.416032 4.701196 20.684269 0.916461 -2.928436 -0.573248 0.017362 -0.845626 -2.324240 0.674639 -4.134067 2.843489 15.789363 11.456914 -32.888022 -5.512244 -13.392998 43.972535 2.022035 -8.629654 4.157808 -0.024679 0.047383 -0.130782 -3.567488 -1.613173 5.680438 3.158833 -2.244497 3.567792 3.751882 -1.181370 -8.935478 -4.815959 -4.189033 -18.065484 5.115502 -4.878844 17.391974 0.325789 -1.809810 9.122942 -7.212569 2.698730 -1.110358 -78.007675 -4.406214 23.580776 13.041790 -22.010552 -2.590158 -0.407859 -0.820234 -7.075360 30.329269 23.310889 13.666935 -7.125000 0.000000 0.000000 1.674092 57.442376 0.484030 11.255699 -2.112244 -2.558111 76.757690 -4.341314 -3.627959 -8.131214 18.339724 -1.628569 1.023195 -0.181787 9.812536 -17.831511 14.392480 -4.835662 7.125000 0.000000 0.000000 5.879626 -14.944919 4.177462
0.226204 17.928974 4.950779 1.220119 1.532491 0.867125 -1.462505 6.086221 5.762688 -21.887067 -5.426076 -4.344035 -0.451993 4.588412 20.421855 0.933704 -2.963703 -0.843451 0.012866 -0.732957 -2.014456 0.737131 -4.119556 2.798527 15.540295 11.487417 -32.870594 -5.075509 -13.035953 42.394039 2.170179 -9.064110 3.811892 -0.036230 1.214536 -3.339414 -3.720343 -1.661152 5.643524 3.171958 -2.318990 3.575671 3.845909 -1.219017 -8.902727 -4.850697 -4.189605 -18.018565 5.053795 -4.865905 17.449884 0.315945 -1.811574 9.132559 -7.212223 2.688313 -1.108384 -77.931708 -4.602283 23.707432 13.103010 -22.103306 -2.619329 -0.424781 -0.793626 -7.177068 30.888603 21.911376 13.227069 -7.125000 0.000000 0.000000 2.671729 56.001687 0.720522 11.261825 -2.118597 -2.556456 76.721815 -4.347976 -4.168681 -7.903334 17.948146 -1.513582 1.062562 -0.318194 9.520275 -18.065261 17.096675 -5.845647 7.125000 0.000000 0.000000 5.772476 -11.975567 4.472166
0.222972 17.921467 5.043306 1.152771 1.465942 0.884351 -1.485206 6.127003 5.826668 -21.769524 -5.297325 -3.896039 -0.494993 4.478796 20.134844 0.902981 -2.830146 -0.936195 0.015267 -0.795441 -2.186287 0.824962 -4.111053 2.752934 15.459031 11.708109 -32.674441 -4.656584 -12.621608 40.758677 2.296957 -9.480107 4.348803 -0.097849 1.921660 -5.292147 -3.655521 -1.651448 5.739706 3.205084 -2.296625 3.551259 3.817135 -1.215297 -8.981928 -4.813678 -4.221880 -18.081587 4.982427 -4.904434 17.543903 0.284403 -1.830943 9.169424 -7.209302 2.685269 -1.106804 -77.812215 -4.774843 23.922271 13.249153 -22.319638 -2.680471 -0.421688 -0.783613 -7.332514 30.867892 21.430638 12.953497 -7.125000 0.000000 0.000000 2.742243 55.450611 0.703255 11.258137 -2.123222 -2.553965 76.755039 -4.363739 -4.458372 -7.824706 17.810550 -1.474218 1.070230 -0.367703 9.523159 -18.048535 18.026008 -6.162308 7.125000 0.000000 0.000000 5.824051 -10.966371 4.634777
0.220059 17.914931 5.136556 1.098349 1.408824 0.924763 -1.508887 6.163412 5.887329 -21.662166 -5.160926 -3.486810 -0.537598 4.370472 19.851457 0.881221 -2.735132 -1.008903 0.016072 -0.813273 -2.235313 0.912021 -4.099351 2.704828 15.368259 11.912281 -32.518544 -4.238976 -12.202003 39.109612 2.429038 -9.918480 4.905139 -0.128775 2.239048 -6.169386 -3.601046 -1.654011 5.808200 3.232354 -2.290939 3.523771 3.793280 -1.219607 -9.044259 -4.758222 -4.238061 -18.137577 4.899110 -4.924535 17.606563 0.248490 -1.843091 9.195243 -7.206139 2.680082 -1.105098 -77.682586 -4.961596 24.136821 13.405868 -22.550443 -2.745176 -0.415260 -0.778581 -7.535276 30.778954 21.194094 12.777444 -7.125000 0.000000 0.000000 2.684958 55.160710 0.668167 11.254087 -2.128471 -2.553061 76.789426 -4.381997 -4.608428 -7.771082 17.717117 -1.446336 1.076899 -0.402264 9.444504 -18.047145 18.707981 -6.398748 7.125000 0.000000 0.000000 5.855142 -10.224820 4.748372
0.218241 17.912034 5.232481 1.096623 1.391232 1.044041 -1.535429 6.184710 5.936655 -21.598607 -4.999833 -3.204244 -0.578515 4.266364 19.581589 0.892247 -2.779201 -1.022717 0.011121 -0.671014 -1.844043 0.995188 -4.076511 2.648245 15.236794 12.050885 -32.508036 -3.824931 -11.767476 37.417007 2.580161 -10.433575 5.482639 -0.053207 1.259621 -3.467310 -3.592624 -1.701039 5.776185 3.238776 -2.346643 3.487500 3.792293 -1.253207 -9.043789 -4.643943 -4.198131 -18.164191 4.775813 -4.879613 17.561184 0.198869 -1.829889 9.182269 -7.202286 2.667268 -1.102948 -77.520827 -5.197611 24.345937 13.594103 -22.824021 -2.820330 -0.398544 -0.789585 -7.895582 30.488249 21.738208 12.923288 -7.125000 0.000000 0.000000 2.241678 55.710457 0.585542 11.249303 -2.135914 -2.557575 76.824253 -4.408246 -4.298219 -7.794603 17.760433 -1.453519 1.081790 -0.390592 9.074752 -18.110361 18.641849 -6.398521 7.125000 0.000000 0.000000 5.808822 -10.290715 4.702621
0.217333 17.909432 5.328139 1.201890 1.402260 1.188632 -1.563578 6.198366 5.980864 -21.649514 -4.821643 -2.926493 -0.625088 4.142896 19.271595 0.907560 -2.867084 -0.966927 0.007188 -0.540323 -1.484719 1.072140 -4.048118 2.585911 14.993866 12.141793 -32.565648 -3.415359 -11.329107 35.705736 2.736339 -10.975961 6.060057 -0.021341 0.903483 -2.483675 -3.676441 -1.749427 5.717539 3.216933 -2.413733 3.424308 3.826325 -1.289799 -9.040141 -4.610198 -4.174534 -18.142888 4.703508 -4.847437 17.556607 0.176563 -1.821347 9.175775 -7.198175 2.655452 -1.099329 -77.388612 -5.423791 24.546118 13.743305 -23.039773 -2.880362 -0.386724 -0.796810 -8.228957 30.320685 22.067694 13.015121 -7.125000 0.000000 0.000000 1.981614 56.044774 0.536953 11.249551 -2.142512 -2.560286 76.841196 -4.446790 -4.209011 -7.773631 17.725271 -1.440822 1.088552 -0.400489 8.882372 -18.180872 18.909620 -6.517563 7.125000 0.000000 0.000000 5.775463 -9.992264 4.709998
0.217446 17.907160 5.423495 1.427523 1.445486 1.361699 -1.593535 6.203427 6.019315 -21.829196 -4.624220 -2.654157 -0.678027 3.997648 18.916459 0.927696 -3.004259 -0.832831 0.004400 -0.422646 -1.161335 1.142099 -4.013479 2.517109 14.625541 12.179044 -32.699895 -3.010818 -10.886418 33.973467 2.898203 -11.549048 6.637384 -0.038639 1.248548 -3.433285 -3.864027 -1.799346 5.628935 3.163293 -2.493632 3.330828 3.899755 -1.329757 -9.032918 -4.667052 -4.169310 -18.067678 4.688568 -4.829598 17.597933 0.184985 -1.818046 9.176572 -7.193773 2.644758 -1.094056 -77.289635 -5.638906 24.736249 13.848594 -23.190470 -2.923382 -0.380410 -0.799785 -8.532032 30.291655 22.155721 13.046190 -7.125000 0.000000 0.000000 1.927669 56.136730 0.526654 11.255462 -2.148160 -2.560968 76.838020 -4.499165 -4.368429 -7.702606 17.601822 -1.405763 1.097421 -0.434649 8.889536 -18.259591 19.553030 -6.770785 7.125000 0.000000 0.000000 5.756685 -9.283926 4.777145
